<svg xmlns="http://www.w3.org/2000/svg" viewBox="0 0 240 120" width="240" height="120" fill="none" aria-hidden="true" focusable="false">
  <!-- 10月：どんぐり・紅葉・小さな秋の実（オリジナル） -->
  <!-- どんぐり -->
  <g stroke="#9a5a34" stroke-width="3" stroke-linecap="round" stroke-linejoin="round">
    <path d="M34 46 q22 -10 44 0 q2 6 -4 8 h-36 q-6 -2 -4 -8 z" fill="#cf8b58" />
    <path d="M38 54 q4 34 18 34 q14 0 18 -34 z" fill="#f0dfd0" />
    <path d="M56 36 v-10" />
  </g>
  <!-- 紅葉 -->
  <g stroke="#9a5a34" stroke-width="2.8" stroke-linecap="round" stroke-linejoin="round">
    <path d="M132 30 l9 16 l16 -6 l-9 16 l14 6 l-16 4 l4 16 l-14 -10 l-14 10 l4 -16 l-16 -4 l14 -6 l-9 -16 l16 6 z" fill="#b0563a" />
    <path d="M132 66 v24" />
  </g>
  <!-- 小さな秋の実 -->
  <g stroke="#9a5a34" stroke-width="2.6" stroke-linejoin="round">
    <circle cx="190" cy="48" r="9" fill="#cf8b58" />
    <circle cx="210" cy="58" r="8" fill="#b0563a" />
    <circle cx="196" cy="70" r="7" fill="#f0dfd0" />
    <path d="M190 39 v-8 M210 50 v-7 M196 63 v-6" stroke-linecap="round" />
  </g>
  <g stroke="#9a5a34" stroke-width="3" stroke-linecap="round">
    <path d="M182 84 q16 -6 34 0" />
  </g>
</svg>
